<svg xmlns="http://www.w3.org/2000/svg" width="168.406" height="156.579" viewBox="0 0 168.406 156.579">
  <path id="like" d="M168.128,48.516c-2.458-27.057-21.609-46.687-45.576-46.687A45.3,45.3,0,0,0,83.738,24.193C75.586,10.244,61.565,1.826,45.854,1.826,21.89,1.826,2.736,21.456.281,48.513.087,49.708-.71,56,1.713,66.255a76.1,76.1,0,0,0,23.316,38.907L83.7,158.4l59.678-53.239a76.109,76.109,0,0,0,23.316-38.911C169.116,56,168.319,49.711,168.128,48.516ZM51.817,27.989A25.94,25.94,0,0,0,25.906,53.9a3.239,3.239,0,0,1-6.478,0A32.425,32.425,0,0,1,51.817,21.511a3.239,3.239,0,1,1,0,6.478Z" transform="translate(0 -1.826)" fill="#fed40f"/>
</svg>
