<svg xmlns="http://www.w3.org/2000/svg" width="151.188" height="170.579" viewBox="0 0 151.188 170.579">
  <g id="hourglass" transform="translate(-2.671)">
    <g id="Layer_1_64_" transform="translate(2.671)">
      <g id="Grupo_1" data-name="Grupo 1">
        <path id="Trazado_70" data-name="Trazado 70" d="M36.371,53.177a3.876,3.876,0,0,0,7.752,0,19.312,19.312,0,0,1,4.54-12.415A79.642,79.642,0,0,0,63.136,15.9a3.874,3.874,0,0,0-3.655-5.164H21.009A3.874,3.874,0,0,0,17.351,15.9,79.783,79.783,0,0,0,31.824,40.762,19.307,19.307,0,0,1,36.371,53.177Z" transform="translate(35.345 28.222)" fill="#fed40f"/>
        <path id="Trazado_71" data-name="Trazado 71" d="M58.269,29.515a3.876,3.876,0,0,0-7.752,0c0,5.6-3.346,11.131-9.41,15.62C28.136,54.713,18.428,65.118,12.251,76.056a3.879,3.879,0,0,0,3.379,5.778H93.163a3.876,3.876,0,0,0,3.375-5.778C90.365,65.118,80.654,54.713,67.687,45.135,61.615,40.646,58.273,35.112,58.269,29.515Z" transform="translate(21.199 67.42)" fill="#fed40f"/>
        <path id="Trazado_72" data-name="Trazado 72" d="M146.1,155.071h-2.319c-2.664-30.169-20.331-53.331-34.063-69.782,13.736-16.447,31.4-39.612,34.071-69.782h2.319a7.754,7.754,0,0,0,0-15.507H10.423a7.754,7.754,0,0,0,0,15.507h2.319C15.409,45.68,33.069,68.845,46.805,85.289c-13.733,16.447-31.4,39.609-34.067,69.782H10.423a7.754,7.754,0,0,0,0,15.507H146.107a7.754,7.754,0,1,0-.007-15.507Zm-117.818,0c2.914-27.259,20.636-48.25,33.878-63.935l.708-.838a7.746,7.746,0,0,0,0-10l-.7-.835C48.925,63.776,31.2,42.784,28.282,15.522h99.962C125.33,42.784,107.6,63.776,94.362,79.464l-.7.835a7.746,7.746,0,0,0,0,10l.708.838c13.239,15.685,30.961,36.676,33.875,63.935H28.282Z" transform="translate(-2.671)"/>
      </g>
    </g>
  </g>
</svg>
