<svg xmlns="http://www.w3.org/2000/svg" width="138.098" height="170.513" viewBox="0 0 138.098 170.513">
  <g id="shield" transform="translate(-48.667 0)">
    <path id="Trazado_66" data-name="Trazado 66" d="M186.765,26.628V72.593a104.933,104.933,0,0,1-65.381,97.2,9.681,9.681,0,0,1-7.336,0,104.933,104.933,0,0,1-65.381-97.2V26.628a9.767,9.767,0,0,1,6.96-9.308L111.129.956a23.232,23.232,0,0,1,13.174,0l55.5,16.369A9.767,9.767,0,0,1,186.765,26.628ZM179,72.593V26.628a1.951,1.951,0,0,0-1.393-1.859L122.106,8.4a15.473,15.473,0,0,0-8.784,0l-55.5,16.369a1.951,1.951,0,0,0-1.393,1.859V72.593A97.172,97.172,0,0,0,116.974,162.6a1.96,1.96,0,0,0,1.483,0A97.172,97.172,0,0,0,179,72.593Z" transform="translate(0 0)" fill="#22211e"/>
    <path id="Trazado_67" data-name="Trazado 67" d="M194.548,42.176V88.142A97.172,97.172,0,0,1,134,178.147a1.96,1.96,0,0,1-1.483,0A97.172,97.172,0,0,1,71.977,88.142V42.176a1.951,1.951,0,0,1,1.393-1.859l55.5-16.369a15.473,15.473,0,0,1,8.784,0l55.5,16.369A1.951,1.951,0,0,1,194.548,42.176Zm-14.1,45.965V55.622a5.858,5.858,0,0,0-4.177-5.586l-41.366-12.2a5.792,5.792,0,0,0-3.292,0l-41.366,12.2a5.858,5.858,0,0,0-4.177,5.586v32.52A82.5,82.5,0,0,0,101.108,135.8a83.589,83.589,0,0,0,29.457,25.917,5.814,5.814,0,0,0,5.4,0A83.592,83.592,0,0,0,165.417,135.8,82.5,82.5,0,0,0,180.451,88.142Z" transform="translate(-15.547 -15.548)" fill="#fff"/>
    <path id="Trazado_68" data-name="Trazado 68" d="M208.686,84.232v32.52a82.5,82.5,0,0,1-15.033,47.662A83.589,83.589,0,0,1,164.2,190.33a5.814,5.814,0,0,1-5.4,0,83.592,83.592,0,0,1-29.457-25.917,82.5,82.5,0,0,1-15.033-47.662V84.232a5.858,5.858,0,0,1,4.177-5.586l41.366-12.2a5.791,5.791,0,0,1,3.292,0l41.366,12.2A5.858,5.858,0,0,1,208.686,84.232Zm-7.763,32.52V85.68L161.5,74.055,122.073,85.68v31.072a74.765,74.765,0,0,0,13.62,43.2,75.846,75.846,0,0,0,25.8,23.022,75.843,75.843,0,0,0,25.8-23.022A74.763,74.763,0,0,0,200.922,116.752Z" transform="translate(-43.782 -44.158)" fill="#22211e"/>
    <path id="Trazado_69" data-name="Trazado 69" d="M216.469,101.395v31.072a74.764,74.764,0,0,1-13.62,43.2,75.846,75.846,0,0,1-25.8,23.022,75.842,75.842,0,0,1-25.8-23.022,74.764,74.764,0,0,1-13.62-43.2V101.395l39.425-11.626Z" transform="translate(-59.328 -59.873)" fill="#fed40f"/>
  </g>
</svg>
